<?xml version="1.0" encoding="UTF-8" standalone="no"?>
<svg
   xmlns:dc="http://purl.org/dc/elements/1.1/"
   xmlns:cc="http://creativecommons.org/ns#"
   xmlns:rdf="http://www.w3.org/1999/02/22-rdf-syntax-ns#"
   xmlns:svg="http://www.w3.org/2000/svg"
   xmlns="http://www.w3.org/2000/svg"
   xmlns:sodipodi="http://sodipodi.sourceforge.net/DTD/sodipodi-0.dtd"
   xmlns:inkscape="http://www.inkscape.org/namespaces/inkscape"
   sodipodi:docname="A1.svg"
   inkscape:version="1.0 (4035a4f, 2020-05-01)"
   id="svg8"
   version="1.1"
   viewBox="0 0 1800 1800"
   height="1800"
   width="1800">
  <title
     id="title1558">A1 (KV 17, Room J EW)</title>
  <defs
     id="defs2" />
  <sodipodi:namedview
     units="px"
     inkscape:snap-nodes="false"
     inkscape:window-maximized="0"
     inkscape:window-y="23"
     inkscape:window-x="1280"
     inkscape:window-height="895"
     inkscape:window-width="1444"
     showgrid="false"
     inkscape:document-rotation="0"
     inkscape:current-layer="layer1"
     inkscape:document-units="px"
     inkscape:cy="578.11096"
     inkscape:cx="368.27805"
     inkscape:zoom="0.12374369"
     inkscape:pageshadow="2"
     inkscape:pageopacity="0.0"
     borderopacity="1.0"
     bordercolor="#666666"
     pagecolor="#ffffff"
     id="base" />
  <metadata
     id="metadata5">
    <rdf:RDF>
      <cc:Work
         rdf:about="">
        <dc:format>image/svg+xml</dc:format>
        <dc:type
           rdf:resource="http://purl.org/dc/dcmitype/StillImage" />
        <dc:title>A1 (KV 17, Room J EW)</dc:title>
        <dc:creator>
          <cc:Agent>
            <dc:title>Serge Rosmorduc</dc:title>
          </cc:Agent>
        </dc:creator>
        <dc:rights>
          <cc:Agent>
            <dc:title>CC-BY-SA</dc:title>
          </cc:Agent>
        </dc:rights>
        <dc:description>A1 sign from KV 17, Room J, EW.</dc:description>
      </cc:Work>
    </rdf:RDF>
  </metadata>
  <g
     id="layer1"
     inkscape:groupmode="layer"
     inkscape:label="Calque 1">
    <path
       sodipodi:nodetypes="ccccc"
       id="path903"
       d="m 1271.665,942.35482 c 8.8897,-40.71942 22.6994,-85.14912 40.0245,-122.31901 65.0437,59.13836 94.9811,110.2617 153.4826,172.99128 C 1349.1267,972.716 1277.2904,948.24246 1169.9687,916.68017 1144.306,853.3327 1104.6494,767.76736 987.19163,778.61873"
       style="fill:none;stroke:#000000;stroke-width:27.867;stroke-linecap:butt;stroke-linejoin:miter;stroke-miterlimit:4;stroke-dasharray:none;stroke-opacity:1" />
    <path
       sodipodi:nodetypes="csssccsscsc"
       id="path905"
       d="m 1043.0173,787.21191 c -12.5749,36.28308 -45.13377,128.02773 -47.42363,141.44575 -1.50174,8.79919 19.47643,25.31823 45.37703,39.68275 29.7325,16.48963 70.6601,29.77854 79.1052,33.37489 14.1765,6.0373 176.0346,84.1443 211.253,98.7741 145.5642,59.7391 285.653,83.7098 293.1398,76.2428 8.5401,-10.658 6.1958,-26.6385 -2.9616,-62.0584 -6.1467,-23.774 -14.4494,-49.043 -22.4511,-70.327 -42.1059,-111.99813 -124.239,-231.9676 -170.2409,-322.36323 -21.9956,-44.83886 -33.9573,-96.64755 -46.3032,-116.25347 -20.46,-32.49123 -131.3987,-63.24976 -188.3108,-70.73972"
       style="fill:none;stroke:#000000;stroke-width:27.867;stroke-linecap:butt;stroke-linejoin:miter;stroke-miterlimit:4;stroke-dasharray:none;stroke-opacity:1" />
    <path
       sodipodi:nodetypes="cscscsssc"
       id="path911"
       d="m 736.23086,185.39994 c -12.27854,47.45103 -54.39396,121.60353 -69.11113,133.57704 -7.10935,5.78391 15.08204,12.26772 30.58839,24.81872 4.85026,31.08153 8.97502,70.94541 20.55693,81.0622 29.60083,25.85661 97.44465,41.13313 153.37763,54.94899 8.35395,24.54603 13.25366,49.99844 24.37808,73.1331 12.0684,25.0978 79.51223,66.20709 128.24264,64.33602 22.5643,-0.86639 44.9093,-16.47918 44.0071,-39.97651 -0.5056,-13.16809 -10.7644,-32.20507 -16.033,-41.44038"
       style="fill:none;stroke:#000000;stroke-width:27.867;stroke-linecap:butt;stroke-linejoin:miter;stroke-miterlimit:4;stroke-dasharray:none;stroke-opacity:1" />
    <path
       sodipodi:nodetypes="cccssscscccssc"
       id="path915"
       d="m 992.27778,342.48058 c -14.22048,68.64023 34.41032,143.80499 59.19362,202.66963 60.3879,-4.66629 120.776,-9.33249 181.1639,-13.99879 27.1768,-85.18645 54.0057,-174.27617 51.922,-222.55076 -2.5851,-59.88669 -32.7586,-150.96508 -98.5123,-204.2065 C 1119.7035,50.676823 1020.0739,27.002005 930.66554,29.383535 797.99944,32.917314 733.07023,80.877289 727.63007,181.50456 c 56.19945,-14.06908 147.42231,-12.19855 176.45626,10.12721 14.86292,11.4289 20.91463,31.12383 31.3719,46.68573 12.515,-16.44396 38.84623,-33.84247 64.69627,-26.44998 l 13.9999,4.15653 c 35.773,16.59007 22.2801,49.91554 2.5581,93.08651 -7.8683,17.2239 -21.66771,36.81477 -40.54263,38.33487 -20.1458,1.62307 -39.48186,-14.36783 -39.91942,-37.82324"
       style="fill:none;stroke:#000000;stroke-width:27.867;stroke-linecap:butt;stroke-linejoin:miter;stroke-miterlimit:4;stroke-dasharray:none;stroke-opacity:1" />
    <path
       sodipodi:nodetypes="cc"
       id="path919"
       d="m 701.16406,371.17961 c 15.89849,-1.69197 45.81578,-1.43136 61.8097,-0.63771"
       style="fill:none;stroke:#000000;stroke-width:27.867;stroke-linecap:butt;stroke-linejoin:miter;stroke-miterlimit:4;stroke-dasharray:none;stroke-opacity:1" />
    <path
       sodipodi:nodetypes="sccs"
       id="path921"
       d="m 783.97565,227.96897 c 41.42553,-0.64979 111.00865,35.27899 111.00865,35.27899 -52.57071,18.53725 -101.18163,26.49861 -162.66571,14.42602 23.65794,-21.37336 13.41214,-49.10519 51.65706,-49.70501 z"
       style="fill:none;stroke:#000000;stroke-width:27.867;stroke-linecap:butt;stroke-linejoin:miter;stroke-miterlimit:4;stroke-dasharray:none;stroke-opacity:1" />
    <path
       sodipodi:nodetypes="ccscsssc"
       id="path925"
       d="m 883.48085,545.38278 c -50.26774,6.63905 -112.35878,25.89726 -150.49953,53.76907 -33.03716,17.10392 -75.92626,84.30769 -122.52076,135.82285 -40.6992,44.99723 -86.99825,111.25502 -105.21347,133.74284 -23.9246,-24.58248 -87.89461,-101.46763 -101.05338,-121.59053 -12.39179,-18.9499 -76.93027,-88.53521 -82.81522,-99.70397 -7.24908,-13.75752 -6.79934,-87.78429 -25.46182,-130.67069 -6.7524,-15.51701 -33.55697,-29.10203 -45.74553,-40.84139"
       style="fill:none;stroke:#000000;stroke-width:27.867;stroke-linecap:butt;stroke-linejoin:miter;stroke-miterlimit:4;stroke-dasharray:none;stroke-opacity:1" />
    <path
       sodipodi:nodetypes="cccsczc"
       id="path927"
       d="m 265.04584,496.46789 c -20.32038,40.07669 -64.52878,115.66018 -52.5888,134.42193 15.50157,32.09336 32.32457,49.78382 49.96026,68.56981 0,0 49.38754,86.67808 74.08129,130.01705 42.33939,74.30814 134.08297,211.48642 152.08553,206.32982 17.13315,-0.5061 107.35724,-99.47343 158.1097,-148.1777 50.75247,-48.70415 122.61932,-120.8535 145.27149,-131.09351"
       style="fill:none;stroke:#000000;stroke-width:27.867;stroke-linecap:butt;stroke-linejoin:miter;stroke-miterlimit:4;stroke-dasharray:none;stroke-opacity:1" />
    <path
       sodipodi:nodetypes="cscc"
       id="path929"
       d="m 779.36351,721.80577 c 27.077,13.34298 33.58996,50.55959 34.46384,85.29515 0.98725,39.23988 -10.63678,71.86769 -16.73171,83.04868 84.31868,134.1851 143.41087,356.6251 148.72684,516.8574"
       style="fill:none;stroke:#000000;stroke-width:27.867;stroke-linecap:butt;stroke-linejoin:miter;stroke-miterlimit:4;stroke-dasharray:none;stroke-opacity:1" />
    <path
       sodipodi:nodetypes="ccscssc"
       id="path933"
       d="m 1229.3912,1309.2729 c -87.4193,34.3445 -186.4675,77.1033 -273.88672,111.4476 -30.82322,-39.8464 -68.61286,-85.8575 -108.72888,-115.0242 -104.69186,-76.1171 -228.4604,-149.425 -396.91345,-200.6369 -34.84587,7.9104 -80.83362,36.4184 -81.43116,66.3546 -1.35039,67.6534 36.50112,154.3954 49.63817,221.0888 13.29748,67.5076 14.00155,117.4869 12.34615,182.6617"
       style="fill:none;stroke:#000000;stroke-width:27.867;stroke-linecap:butt;stroke-linejoin:miter;stroke-miterlimit:4;stroke-dasharray:none;stroke-opacity:1" />
    <path
       sodipodi:nodetypes="cc"
       id="path937"
       d="m 480.57044,1121.3344 c 73.77957,100.4289 81.79328,302.2502 69.27077,409.3343"
       style="fill:none;stroke:#000000;stroke-width:27.867;stroke-linecap:butt;stroke-linejoin:miter;stroke-miterlimit:4;stroke-dasharray:none;stroke-opacity:1" />
    <path
       sodipodi:nodetypes="cscsscc"
       id="path939"
       d="m 953.45045,1422.7914 c -187.44191,58.3742 -497.55328,143.6405 -549.70245,166.6696 -15.24051,6.7301 -28.65604,48.906 -26.63174,71.2371 238.94272,-8.8045 480.1053,-7.1712 722.37344,-11.6885 43.4102,-0.8099 104.7446,-20.8767 124.0156,-53.3563 26.5375,-44.7266 31.0831,-180.9076 7.4788,-277.22 -0.9291,-79.4685 0.3877,-160.1699 9.7844,-245.3066"
       style="fill:none;stroke:#000000;stroke-width:27.867;stroke-linecap:butt;stroke-linejoin:miter;stroke-miterlimit:4;stroke-dasharray:none;stroke-opacity:1" />
    <path
       sodipodi:nodetypes="cssc"
       id="path941"
       d="m 400.85043,1591.0516 c -85.09315,33.7855 -211.81696,92.7966 -296.49031,113.0699 -12.619848,3.0215 -19.931278,39.119 -6.980702,38.2985 87.983112,-5.5729 185.332482,3.7535 267.459912,16.4927"
       style="fill:none;stroke:#000000;stroke-width:27.867;stroke-linecap:butt;stroke-linejoin:miter;stroke-miterlimit:4;stroke-dasharray:none;stroke-opacity:1" />
    <path
       sodipodi:nodetypes="cssscssssssscc"
       id="path943"
       d="m 386.56689,1603.6934 c -34.54639,19.1094 -36.60698,159.9495 3.64327,174.5483 34.51609,12.5188 109.11809,15.1479 162.85012,12.9929 99.61961,-3.9958 194.55506,-9.0699 300.30705,-11.7406 169.93627,-4.2915 315.70477,-21.3331 467.30347,-54.223 46.4771,6.7182 90.4755,9.4411 128.2776,17.5433 43.6077,9.3466 93.7453,21.982 134.9344,20.3115 9.0088,-0.3664 25.5958,0.9091 24.8754,-10.7869 -0.9625,-15.6275 -16.5699,-28.3095 -26.5954,-34.7744 -67.7239,-43.671 -174.369,-72.5899 -208.9551,-93.2208 -22.3398,-13.3259 -56.4378,-51.5418 -82.4112,-50.1185 -24.2676,1.3302 -35.8064,29.3749 -60.0369,42.3476 -28.6654,15.3471 -49.2494,17.4145 -73.6048,30.2226 -15.4891,0.1258 -30.9782,0.2503 -46.4673,0.3757"
       style="fill:none;stroke:#000000;stroke-width:27.867;stroke-linecap:butt;stroke-linejoin:miter;stroke-miterlimit:4;stroke-dasharray:none;stroke-opacity:1" />
    <path
       id="path1460"
       d="m 784.91811,230.02117 7.07284,54.50767"
       style="font-variation-settings:normal;opacity:1;vector-effect:none;fill:none;fill-opacity:1;stroke:#000000;stroke-width:27.867;stroke-linecap:butt;stroke-linejoin:miter;stroke-miterlimit:4;stroke-dasharray:none;stroke-dashoffset:0;stroke-opacity:1;stop-color:#000000;stop-opacity:1" />
  </g>
</svg>
