<?xml version="1.0" encoding="UTF-8" standalone="no"?>
<svg
   xmlns:dc="http://purl.org/dc/elements/1.1/"
   xmlns:cc="http://creativecommons.org/ns#"
   xmlns:rdf="http://www.w3.org/1999/02/22-rdf-syntax-ns#"
   xmlns:svg="http://www.w3.org/2000/svg"
   xmlns="http://www.w3.org/2000/svg"
   xmlns:sodipodi="http://sodipodi.sourceforge.net/DTD/sodipodi-0.dtd"
   xmlns:inkscape="http://www.inkscape.org/namespaces/inkscape"
   sodipodi:docname="A2.svg"
   inkscape:version="1.0 (4035a4f, 2020-05-01)"
   id="svg8"
   version="1.1"
   viewBox="0 0 210 297"
   height="297mm"
   width="210mm">
  <title
     id="title854">A2</title>
  <defs
     id="defs2" />
  <sodipodi:namedview
     inkscape:snap-global="false"
     inkscape:snap-others="false"
     inkscape:snap-nodes="false"
     inkscape:window-maximized="0"
     inkscape:window-y="23"
     inkscape:window-x="1306"
     inkscape:window-height="1107"
     inkscape:window-width="1894"
     showgrid="false"
     inkscape:document-rotation="0"
     inkscape:current-layer="layer1"
     inkscape:document-units="mm"
     inkscape:cy="367.69683"
     inkscape:cx="284.20719"
     inkscape:zoom="0.54732907"
     inkscape:pageshadow="2"
     inkscape:pageopacity="0.0"
     borderopacity="1.0"
     bordercolor="#666666"
     pagecolor="#ffffff"
     id="base" />
  <metadata
     id="metadata5">
    <rdf:RDF>
      <cc:Work
         rdf:about="">
        <dc:format>image/svg+xml</dc:format>
        <dc:type
           rdf:resource="http://purl.org/dc/dcmitype/StillImage" />
        <dc:title>A2</dc:title>
        <dc:description>A2 from TT 17 (Sethy I's tomb) Sarcophagus Room West Wall</dc:description>
        <dc:rights>
          <cc:Agent>
            <dc:title>CC-BY-SA</dc:title>
          </cc:Agent>
        </dc:rights>
        <dc:creator>
          <cc:Agent>
            <dc:title>Serge Rosmorduc</dc:title>
          </cc:Agent>
        </dc:creator>
        <dc:source></dc:source>
      </cc:Work>
    </rdf:RDF>
  </metadata>
  <g
     style="display:inline"
     id="layer1"
     inkscape:groupmode="layer"
     inkscape:label="Calque 1">
    <path
       sodipodi:nodetypes="csccsccscccscscc"
       transform="scale(0.26458333)"
       d="m 429.37291,387.08288 c 0,0 13.23541,14.90209 35.19593,15.8884 10.5182,0.47241 24.00343,-25.8287 24.00343,-25.8287 l -25.94258,-61.71517 c 0,0 26.85008,-61.01685 12.68385,-69.48679 -12.45072,-7.44424 -21.70963,19.88809 -21.70963,19.88809 l -21.28441,0.7328 c -1.59025,-8.99518 -2.64276,-12.63156 -6.89129,-16.62899 -13.47893,-12.68233 -36.99919,-13.36216 -62.00341,-13.12958 -4.95821,22.43473 -12.88496,46.35738 -26.51085,62.97218 l 6.97192,2.78582 c 6.14699,2.71248 9.30213,13.35695 10.95048,23.73459 1.82298,11.47711 3.8151,22.50225 5.62662,23.06888 4.09192,0.90423 13.74419,-0.27621 19.81847,0.11005 7.03037,0.44705 13.1714,1.87504 21.31807,4.8107 9.09035,15.86331 13.15102,31.26934 15.88466,44.68646"
       style="display:inline;fill:none;stroke:#000000;stroke-width:10.00000013;stroke-linecap:butt;stroke-linejoin:miter;stroke-miterlimit:4;stroke-dasharray:none;stroke-opacity:0.971311"
       id="path77" />
    <path
       sodipodi:nodetypes="cssscc"
       id="path928"
       d="m 96.101579,61.98993 c 0,0 1.861951,-6.741977 5.038811,-8.397339 6.40557,-3.337748 12.32139,-6.277743 25.54537,-5.216807 12.08544,0.969593 21.07438,12.565348 23.13146,22.011781 2.31335,10.623293 1.14499,32.224165 1.14499,32.224165 -7.70787,-1.67459 -15.20544,-2.50796 -22.59139,-2.894894"
       style="fill:none;stroke:#000000;stroke-width:2.64583333;stroke-linecap:butt;stroke-linejoin:miter;stroke-miterlimit:4;stroke-dasharray:none;stroke-opacity:1" />
    <path
       sodipodi:nodetypes="cccsc"
       id="path930"
       d="m 108.18445,99.48325 c -15.552151,3.91076 -38.767404,14.50957 -51.714672,22.34105 m 12.703232,-7.98489 c 4.910243,-5.69604 11.476725,-12.61466 14.235142,-19.452067 2.461822,-6.102226 0.812931,-13.20287 -1.096598,-16.852505"
       style="fill:none;stroke:#000000;stroke-width:2.64583333;stroke-linecap:butt;stroke-linejoin:miter;stroke-miterlimit:4;stroke-dasharray:none;stroke-opacity:1" />
    <path
       sodipodi:nodetypes="cccscsscsssssc"
       id="path934"
       d="m 68.440768,201.28479 c -8.544736,7.23327 -15.746871,21.12357 -16.894575,25.68663 21.721444,-3.37642 49.478407,-0.10313 71.105217,2.29522 1.93466,-2.64019 6.25315,-6.48617 8.48778,-5.25524 5.03043,2.77099 9.63094,5.97191 15.23437,8.16991 0,0 10.02301,3.88168 18.05223,6.47725 6.44412,2.08315 11.25952,2.73512 11.17029,4.42307 -0.12961,2.45153 -35.04786,-2.79526 -45.93635,-2.5533 -5.6471,0.67038 -26.30593,2.24051 -43.630082,1.53883 -20.82556,-0.84351 -42.171561,-3.26154 -48.92979,-4.07077 -4.866917,-0.58277 -6.181687,-7.6682 -6.344093,-12.5672 -0.151808,-4.57933 3.86303,-9.04136 5.78425,-11.68948 5.889012,-8.11713 49.849328,-16.60579 67.442265,-22.60625 2.6278,-0.89627 4.1409,-3.50836 5.17914,-4.73986"
       style="fill:none;stroke:#000000;stroke-width:2.64583333;stroke-linecap:butt;stroke-linejoin:miter;stroke-miterlimit:4;stroke-dasharray:none;stroke-opacity:1" />
    <path
       sodipodi:nodetypes="cssc"
       id="path936"
       d="m 48.896086,150.70047 c 0,0 -1.563378,3.73281 -0.782039,9.33149 0.694645,4.97748 5.13931,14.75914 7.132721,22.81407 2.823295,11.40832 3.285258,20.81335 3.285258,20.81335"
       style="fill:none;stroke:#000000;stroke-width:2.64583333;stroke-linecap:butt;stroke-linejoin:miter;stroke-miterlimit:4;stroke-dasharray:none;stroke-opacity:1" />
    <path
       sodipodi:nodetypes="cssssc"
       id="path938"
       d="m 94.905986,193.54821 c -4.507237,-8.04316 -10.96615,-17.34889 -18.361036,-23.88752 -9.714309,-8.5895 -19.571209,-16.46782 -31.573294,-21.37671 -3.575384,-1.46234 -7.39074,0.21391 -10.361571,2.56115 -3.87366,3.06056 -5.925722,10.85895 -5.336952,12.58624 7.038202,20.64816 9.555079,29.03028 14.291798,45.5734"
       style="fill:none;stroke:#000000;stroke-width:2.64583333;stroke-linecap:butt;stroke-linejoin:miter;stroke-miterlimit:4;stroke-dasharray:none;stroke-opacity:1" />
    <path
       sodipodi:nodetypes="csssc"
       id="path940"
       d="m 31.219928,228.82778 c -5.310786,1.98364 -12.262179,5.42891 -16.911105,6.81675 -1.483261,0.4428 -2.540096,0.74338 -2.59957,1.20134 -0.282701,2.17683 6.86538,1.11524 13.554739,0.84264 4.202751,-0.17126 7.033695,-0.0502 10.161872,0.15607"
       style="fill:none;stroke:#000000;stroke-width:2.64583333;stroke-linecap:butt;stroke-linejoin:miter;stroke-miterlimit:4;stroke-dasharray:none;stroke-opacity:1" />
    <path
       sodipodi:nodetypes="csc"
       id="path942"
       d="m 97.072238,73.937484 c 1.603616,-1.069078 5.181642,-4.211744 7.750812,-4.009043 3.7785,0.298115 6.59265,3.741774 9.88897,5.612661"
       style="fill:none;stroke:#000000;stroke-width:2.64583333;stroke-linecap:butt;stroke-linejoin:miter;stroke-miterlimit:4;stroke-dasharray:none;stroke-opacity:1" />
    <path
       sodipodi:nodetypes="csc"
       id="path944"
       d="m 98.622455,73.766388 c 0,0 3.922705,2.462924 6.147195,2.672696 2.81882,0.265817 8.28536,-1.870887 8.28536,-1.870887"
       style="fill:none;stroke:#000000;stroke-width:2.64583333;stroke-linecap:butt;stroke-linejoin:miter;stroke-miterlimit:4;stroke-dasharray:none;stroke-opacity:1" />
    <path
       sodipodi:nodetypes="sssss"
       id="path946"
       d="m 104.23511,71.628232 c -1.06396,0.163685 -1.46986,1.871802 -1.33634,2.939965 0.0951,0.76046 1.11341,1.45288 1.87088,1.336347 0.81182,-0.124895 1.7055,-1.055859 1.60362,-1.870884 -0.13306,-1.064501 -1.07785,-2.568552 -2.13816,-2.405428 z"
       style="fill:none;stroke:#000000;stroke-width:2.64583333;stroke-linecap:butt;stroke-linejoin:miter;stroke-miterlimit:4;stroke-dasharray:none;stroke-opacity:1" />
    <path
       id="path948"
       d="m 138.98015,175.86335 c 0,0 3.95777,21.17221 1.33635,31.27053 -1.49728,5.76787 -9.35443,15.23436 -9.35443,15.23436"
       style="fill:none;stroke:#000000;stroke-width:2.64583;stroke-linecap:butt;stroke-linejoin:miter;stroke-miterlimit:4;stroke-dasharray:none;stroke-opacity:1"
       sodipodi:nodetypes="csc" />
    <path
       sodipodi:nodetypes="csccsccsccsccsccccscssssccssc"
       id="path950"
       d="m 151.49675,102.61173 c 3.2524,0.10685 9.17163,3.42192 11.00847,6.0931 10.94605,15.91803 18.78978,42.56551 22.18355,52.43338 -0.63575,15.08808 -1.39248,28.72436 -4.4479,43.69146 -1.43949,3.88762 -3.36291,6.6864 -5.40732,9.9691 -1.34944,2.1668 -3.42478,7.35818 -4.8952,6.98433 -2.03801,-0.0232 1.24725,-8.03127 1.87088,-11.68396 -3.91996,2.93997 -7.56549,5.1415 -9.94511,9.42482 -2.07722,3.73898 -1.14605,8.18968 -1.23514,12.46599 -4.09813,-0.17818 -6.98643,0.007 -10.60063,-1.38142 2.46078,-5.91367 3.04219,-10.96487 6.77741,-16.16823 3.86242,-5.38054 8.80382,-8.80961 13.75015,-13.21441 0.3756,-12.33565 1.59809,-22.85655 2.33664,-37.73285 -6.2376,-9.40706 -12.09795,-21.54993 -17.09153,-31.42645 -2.14666,-4.24576 -3.73864,-8.56583 -5.68569,-11.31454 m 0.60491,5.20228 c -6.5128,16.52484 -11.0784,31.37648 -12.00736,48.83994 l -29.95949,11.83577 c -0.6076,-17.05548 -1.17876,-31.46419 -11.200013,-49.78804 0,0 -2.775427,-9.30688 -2.672697,-14.9671 -8.513646,3.22401 -33.154414,10.11946 -47.300943,12.801 -3.761629,0.71304 -6.538276,1.12344 -6.985606,0.37112 -0.692216,-1.16417 0.984763,-3.75787 2.32763,-5.94595 4.513638,-7.35455 13.616598,-19.1048 23.759709,-29.273586 2.891038,-2.898355 4.959155,-6.692671 6.55038,-9.757654 -0.524508,-6.452111 -2.190999,-12.675824 1.870888,-20.045214 4.135743,-4.237343 6.638931,-11.128474 8.91829,-12.997031 0.959017,-0.786177 5.745379,1.358783 6.076821,2.678229 0.319113,1.270363 -2.427914,4.545018 -4.419894,6.877155"
       style="fill:none;stroke:#000000;stroke-width:2.64583333;stroke-linecap:butt;stroke-linejoin:miter;stroke-miterlimit:4;stroke-dasharray:none;stroke-opacity:1" />
    <path
       sodipodi:nodetypes="cccc"
       id="path956"
       d="m 97.353641,136.87683 -1.368767,1.53987 1.026576,0.85548 1.882055,-0.51329"
       style="font-variation-settings:normal;opacity:1;vector-effect:none;fill:none;fill-opacity:1;stroke:#000000;stroke-width:2.64583333;stroke-linecap:butt;stroke-linejoin:miter;stroke-miterlimit:4;stroke-dasharray:none;stroke-dashoffset:0;stroke-opacity:1;stop-color:#000000;stop-opacity:1" />
    <path
       sodipodi:nodetypes="csc"
       id="path972"
       d="m 81.35344,78.020683 c 2.96245,-2.990936 7.567779,-10.200164 5.127317,-10.16918 -2.038263,0.02588 -3.161846,2.73457 -4.870952,3.84549"
       style="font-variation-settings:normal;opacity:1;vector-effect:none;fill:none;fill-opacity:1;stroke:#000000;stroke-width:2.64583333;stroke-linecap:butt;stroke-linejoin:miter;stroke-miterlimit:4;stroke-dasharray:none;stroke-dashoffset:0;stroke-opacity:1;stop-color:#000000;stop-opacity:1" />
  </g>
</svg>
